<svg width="37" height="32" viewBox="0 0 32 27" fill="none" xmlns="http://www.w3.org/2000/svg">
<path fill-rule="evenodd" clip-rule="evenodd" d="M8 13.25C8.9665 13.25 9.75 14.0335 9.75 15V23.25H22.25V15C22.25 14.0335 23.0335 13.25 24 13.25C24.9665 13.25 25.75 14.0335 25.75 15V25C25.75 25.9665 24.9665 26.75 24 26.75H8C7.0335 26.75 6.25 25.9665 6.25 25V15C6.25 14.0335 7.0335 13.25 8 13.25Z" fill="white"/>
<path fill-rule="evenodd" clip-rule="evenodd" d="M22.25 15C22.25 14.0335 23.0335 13.25 24 13.25H30C30.9665 13.25 31.75 14.0335 31.75 15C31.75 15.9665 30.9665 16.75 30 16.75H24C23.0335 16.75 22.25 15.9665 22.25 15Z" fill="white"/>
<path fill-rule="evenodd" clip-rule="evenodd" d="M0.25 15C0.25 14.0335 1.0335 13.25 2 13.25H8C8.9665 13.25 9.75 14.0335 9.75 15C9.75 15.9665 8.9665 16.75 8 16.75H2C1.0335 16.75 0.25 15.9665 0.25 15Z" fill="white"/>
<path fill-rule="evenodd" clip-rule="evenodd" d="M17.2824 0.809218C17.94 1.51746 17.899 2.62474 17.1908 3.2824L3.19079 16.2824C2.48255 16.9401 1.37527 16.899 0.717611 16.1908C0.0599564 15.4826 0.100967 14.3753 0.80921 13.7176L14.8092 0.717619C15.5175 0.059964 16.6247 0.100974 17.2824 0.809218Z" fill="white"/>
<path fill-rule="evenodd" clip-rule="evenodd" d="M31.2824 16.1908C30.6247 16.899 29.5175 16.9401 28.8092 16.2824L14.8092 3.2824C14.101 2.62474 14.06 1.51746 14.7176 0.809218C15.3753 0.100974 16.4825 0.059964 17.1908 0.717619L31.1908 13.7176C31.899 14.3753 31.94 15.4826 31.2824 16.1908Z" fill="white"/>
</svg>
